<svg width="26" height="26" viewBox="0 0 26 26" fill="none" xmlns="http://www.w3.org/2000/svg">
<g clip-path="url(#clip0_657_39759)">
<path d="M11.6151 0.930611C10.9372 0.950857 10.2822 1.30392 9.90903 1.92085L9.7772 2.1396C9.58892 2.45043 9.25718 2.64188 8.89439 2.64936H8.89341L8.63755 2.65522C7.53963 2.67809 6.64524 3.57182 6.6229 4.66987L6.61704 4.92573C6.60956 5.28853 6.41753 5.62096 6.10728 5.80854L5.88853 5.94135C4.94906 6.51004 4.62104 7.73185 5.15024 8.69428H5.15122L5.27427 8.91889C5.44934 9.23675 5.44934 9.62057 5.27427 9.93842L5.15122 10.1621C4.6221 11.1243 4.94943 12.3463 5.8895 12.915L6.10825 13.0468C6.41909 13.2351 6.61054 13.5668 6.61802 13.9296V13.9306L6.62388 14.1865C6.64237 15.0746 7.23452 15.8209 8.03989 16.0888L5.44224 21.7177C5.40699 21.7939 5.3915 21.8778 5.3972 21.9616C5.4029 22.0453 5.4296 22.1263 5.47484 22.1971C5.52009 22.2678 5.58242 22.326 5.65608 22.3663C5.72974 22.4066 5.81237 22.4277 5.89634 22.4277H9.1561L11.0057 24.7402C11.0595 24.8074 11.1298 24.8596 11.2096 24.8917C11.2895 24.9238 11.3764 24.9347 11.4617 24.9234C11.5471 24.9121 11.6281 24.879 11.6968 24.8272C11.7656 24.7754 11.8199 24.7068 11.8543 24.6279L13.412 21.0683L14.9696 24.6279C15.004 24.7068 15.0583 24.7754 15.1271 24.8272C15.1959 24.879 15.2769 24.9121 15.3622 24.9234C15.4476 24.9347 15.5344 24.9238 15.6143 24.8917C15.6942 24.8596 15.7644 24.8074 15.8182 24.7402L17.6678 22.4277H20.9276C21.0116 22.4277 21.0942 22.4066 21.1678 22.3663C21.2415 22.326 21.3038 22.2678 21.3491 22.1971C21.3943 22.1263 21.421 22.0453 21.4267 21.9616C21.4324 21.8778 21.4169 21.7939 21.3817 21.7177L18.7801 16.08C19.5719 15.8045 20.1515 15.0649 20.1698 14.1865V14.1855L20.1756 13.9306V13.9296C20.1831 13.5668 20.3751 13.2344 20.6854 13.0468L20.9051 12.914C21.8446 12.3453 22.1716 11.1245 21.6424 10.1621L21.6415 10.1611L21.5165 9.93549C21.3424 9.61802 21.3427 9.23512 21.5174 8.91792L21.6415 8.69428V8.69331C22.1704 7.73144 21.8433 6.51032 20.9042 5.94135L20.9032 5.94038L20.6844 5.80854C20.3736 5.62036 20.1821 5.28852 20.1747 4.92573V4.92475L20.1688 4.66987V4.66889C20.1459 3.57097 19.2522 2.67659 18.1542 2.65424L17.8983 2.64838C17.5355 2.6409 17.2031 2.44887 17.0155 2.13862L16.8827 1.91987C16.314 0.979793 15.092 0.652463 14.1297 1.18159V1.18256L13.9051 1.30561C13.5873 1.48069 13.2034 1.48069 12.8856 1.30561L12.662 1.18256C12.4214 1.05028 12.1649 0.971403 11.9061 0.94233C11.8091 0.931427 11.7119 0.927719 11.6151 0.930611ZM11.5897 1.92768C11.7875 1.91325 11.9924 1.95509 12.1805 2.05854L12.4032 2.18159C13.0203 2.52151 13.7714 2.52151 14.3885 2.18159L14.6122 2.05756V2.05854C15.1139 1.78267 15.7308 1.94752 16.0272 2.43745L16.16 2.6562C16.5243 3.25831 17.1732 3.63355 17.8768 3.64838L18.1336 3.65424C18.7063 3.66589 19.1581 4.11678 19.1698 4.6894V4.69038L19.1747 4.94624C19.1892 5.65044 19.5647 6.29928 20.1668 6.66401L20.3856 6.79682C20.8752 7.09299 21.0406 7.70933 20.7655 8.21088L20.6415 8.43549C20.3015 9.05264 20.3015 9.80272 20.6415 10.4199L20.6424 10.4208V10.4218L20.7665 10.6435C21.0422 11.1451 20.8761 11.7622 20.3866 12.0585L20.1678 12.1914C19.5651 12.5558 19.1902 13.2049 19.1756 13.9091L19.1708 14.165V14.166C19.1591 14.7386 18.7072 15.1895 18.1346 15.2011L17.8778 15.207C17.174 15.2218 16.5255 15.5963 16.161 16.1982V16.1992L16.0282 16.4179C15.7318 16.9078 15.1149 17.0727 14.6131 16.7968V16.7978L14.3895 16.6738C13.7724 16.3338 13.0213 16.3338 12.4042 16.6738L12.1805 16.7978V16.7968C11.679 17.0726 11.0618 16.9074 10.7655 16.4179L10.6327 16.1992C10.2683 15.5971 9.61945 15.2218 8.91587 15.207H8.91489L8.65903 15.2011C8.08641 15.1895 7.63455 14.7386 7.6229 14.166V14.165L7.61802 13.9091C7.6035 13.2049 7.22799 12.5561 6.62583 12.1914L6.40708 12.0585C5.91717 11.7621 5.75132 11.1452 6.0272 10.6435L6.15024 10.4208V10.4199C6.4897 9.80288 6.49001 9.05236 6.15024 8.43549L6.02622 8.21186H6.0272C5.75141 7.7103 5.91659 7.09313 6.4061 6.79682L6.62485 6.66401C7.22696 6.29969 7.6022 5.6508 7.61704 4.94721V4.94624L7.6229 4.69038C7.63455 4.11775 8.08543 3.66589 8.65806 3.65424H8.65903L8.91489 3.64936C9.6191 3.63484 10.2679 3.25934 10.6327 2.65717L10.7655 2.43842C10.9137 2.19346 11.1413 2.02892 11.3954 1.96088C11.4589 1.94388 11.5238 1.93249 11.5897 1.92768ZM17.0379 5.97065L12.9178 12.4111L9.6063 9.43061L8.93638 10.1748L13.1249 13.9433L17.8797 6.50971L17.0379 5.97065ZM17.7469 16.2294L20.1454 21.4277H17.4276C17.3526 21.4276 17.2785 21.4445 17.2109 21.4769C17.1433 21.5094 17.0838 21.5566 17.037 21.6152L15.5536 23.4687L13.9579 19.8193L14.7997 17.8955C15.6033 18.021 16.4411 17.6671 16.8836 16.9355L17.0165 16.7167C17.1776 16.4506 17.446 16.28 17.7469 16.2294ZM9.07505 16.2333C9.36459 16.2902 9.62162 16.4594 9.7772 16.7167L9.91001 16.9355C10.4787 17.875 11.7005 18.203 12.6629 17.6738V17.6728L12.8875 17.5498C13.1927 17.3817 13.5571 17.3796 13.867 17.5341L11.2704 23.4687L9.78696 21.6152C9.74008 21.5566 9.68063 21.5094 9.61301 21.4769C9.5454 21.4445 9.47134 21.4276 9.39634 21.4277H6.67857L9.07505 16.2333Z"/>
</g>
<defs>
<clipPath id="clip0_657_39759">
<rect width="25" height="25" fill="white" transform="translate(0.896484 0.427734)"/>
</clipPath>
</defs>
</svg>
